HIERARCHY
ROOT Hips
{
 OFFSET 0.000000 0.000000 0.000000
 CHANNELS 6 Xposition Yposition Zposition Yrotation Xrotation Zrotation
 JOINT Chest
 {
  OFFSET 0.000000 9.588913 -0.003946
  CHANNELS 3 Yrotation Xrotation Zrotation
  JOINT Chest2
  {
   OFFSET 0.000000 9.541882 0.008053
   CHANNELS 3 Yrotation Xrotation Zrotation
   JOINT Chest3
   {
    OFFSET 0.000000 9.501360 0.000000
    CHANNELS 3 Yrotation Xrotation Zrotation
    JOINT Chest4
    {
     OFFSET 0.000000 9.491660 0.000000
     CHANNELS 3 Yrotation Xrotation Zrotation
     JOINT Neck
     {
      OFFSET 0.000000 14.331917 0.000000
      CHANNELS 3 Yrotation Xrotation Zrotation
      JOINT Head
      {
       OFFSET 0.000000 8.884799 0.017034
       CHANNELS 3 Yrotation Xrotation Zrotation
       End Site
       {
        OFFSET 0.000000 16.896195 0.008993
       }
      }
     }
     JOINT RightCollar
     {
      OFFSET -2.923010 9.499495 0.000000
      CHANNELS 3 Yrotation Xrotation Zrotation
      JOINT RightShoulder
      {
       OFFSET -13.795216 0.000000 0.000000
       CHANNELS 3 Yrotation Xrotation Zrotation
       JOINT RightElbow
       {
        OFFSET -30.272209 0.000000 0.000000
        CHANNELS 3 Yrotation Xrotation Zrotation
        JOINT RightWrist
        {
         OFFSET -24.478199 0.000000 0.000000
         CHANNELS 3 Yrotation Xrotation Zrotation
         End Site
         {
          OFFSET -18.090752 0.000000 0.000000
         }
        }
       }
      }
     }
     JOINT LeftCollar
     {
      OFFSET 2.923010 9.499495 0.000000
      CHANNELS 3 Yrotation Xrotation Zrotation
      JOINT LeftShoulder
      {
       OFFSET 13.795216 0.000000 0.000000
       CHANNELS 3 Yrotation Xrotation Zrotation
       JOINT LeftElbow
       {
        OFFSET 30.272209 0.000000 0.000000
        CHANNELS 3 Yrotation Xrotation Zrotation
        JOINT LeftWrist
        {
         OFFSET 24.478199 0.000000 0.000000
         CHANNELS 3 Yrotation Xrotation Zrotation
         End Site
         {
          OFFSET 18.090752 0.000000 0.000000
         }
        }
       }
      }
     }
    }
   }
  }
 }
 JOINT RightHip
 {
  OFFSET -7.826875 0.019532 0.001973
  CHANNELS 3 Yrotation Xrotation Zrotation
  JOINT RightKnee
  {
   OFFSET 0.000000 -40.546152 -0.001885
   CHANNELS 3 Yrotation Xrotation Zrotation
   JOINT RightAnkle
   {
    OFFSET 0.000000 -39.417092 -0.003189
    CHANNELS 3 Yrotation Xrotation Zrotation
    JOINT RightToe
    {
     OFFSET 0.000000 -7.579396 17.243563
     CHANNELS 3 Yrotation Xrotation Zrotation
     End Site
     {
      OFFSET 0.000000 -1.500329 6.694466
     }
    }
   }
  }
 }
 JOINT LeftHip
 {
  OFFSET 7.826875 0.019532 0.001973
  CHANNELS 3 Yrotation Xrotation Zrotation
  JOINT LeftKnee
  {
   OFFSET 0.000000 -40.546152 -0.001885
   CHANNELS 3 Yrotation Xrotation Zrotation
   JOINT LeftAnkle
   {
    OFFSET 0.000000 -39.417092 -0.003189
    CHANNELS 3 Yrotation Xrotation Zrotation
    JOINT LeftToe
    {
     OFFSET 0.000000 -7.579396 17.243563
     CHANNELS 3 Yrotation Xrotation Zrotation
     End Site
     {
      OFFSET 0.000000 -1.500329 6.694466
     }
    }
   }
  }
 }
}
MOTION
Frames: 15
Frame Time: 0.008333
5.719734 88.740422 24.778039 -31.356107 -7.715033 0.854320 6.705635 6.078387 -0.315275 0.370389 0.321697 -0.020381 0.643453 0.559000 -0.034078 6.390785 5.555899 -0.059661 21.222502 20.046104 -1.351021 38.964923 4.291683 -8.149190 -1.610080 0.331565 -0.814413 -9.915979 3.510108 89.316131 3.959544 -10.160066 0.523734 0.542718 -17.564360 2.697541 -5.765214 3.207804 0.884227 14.254760 -4.294311 -88.261996 -8.064025 -16.285135 -11.134415 4.413713 -2.287499 -12.379394 -19.223978 10.392008 -9.931975 16.765934 8.834667 -2.873353 6.373456 -12.089956 3.224881 -0.113648 -0.121757 0.006264 6.458074 7.427995 -0.725585 2.053674 3.042374 -0.724811 0.950553 -3.827096 2.138888 0.044016 0.237800 0.006343
5.699487 88.742585 24.734702 -31.033702 -7.697872 0.891797 6.715861 6.070848 -0.333859 0.371382 0.321284 -0.021476 0.645159 0.558274 -0.035979 6.403341 5.546560 -0.078305 21.159193 20.044484 -1.387143 38.860274 4.285473 -8.199958 -1.606126 0.291675 -0.807644 -9.898429 3.483624 89.292509 4.009304 -10.172983 0.532190 0.560164 -17.572180 2.688899 -5.726286 3.262375 0.907515 14.586078 -4.082772 -88.226352 -8.322557 -17.759697 -12.157978 4.558904 -2.783491 -13.110074 -19.372363 10.441582 -9.933404 16.686822 8.776525 -2.909737 6.266892 -12.087966 3.204292 -0.111830 -0.116578 0.011371 6.283175 7.359620 -0.757953 1.977569 3.041854 -0.731413 0.879403 -3.770089 2.121011 0.044293 0.235919 0.009194
5.680230 88.744158 24.689663 -30.712438 -7.681158 0.929930 6.722641 6.063390 -0.353782 0.372149 0.320848 -0.022548 0.646477 0.557510 -0.037839 6.413300 5.537917 -0.096673 21.094835 20.046704 -1.423694 38.753222 4.286047 -8.250156 -1.603829 0.252990 -0.803563 -9.884757 3.456180 89.269026 4.068925 -10.194462 0.548743 0.586163 -17.581662 2.682458 -5.687570 3.315839 0.934429 14.929397 -3.869200 -88.199656 -8.539093 -19.262467 -13.247757 4.670828 -3.364792 -13.746747 -19.522605 10.486858 -9.936111 16.606081 8.722036 -2.944410 6.163721 -12.088330 3.187062 -0.113374 -0.109831 0.012225 6.091338 7.286647 -0.792770 1.917889 3.047567 -0.738068 0.807618 -3.715648 2.102052 0.044175 0.234997 0.012087
5.661282 88.745226 24.642769 -30.391845 -7.665769 0.966238 6.726847 6.058543 -0.372461 0.372826 0.320483 -0.023571 0.647639 0.556873 -0.039614 6.421871 5.530612 -0.114177 21.029480 20.052310 -1.461084 38.644049 4.292732 -8.300652 -1.602155 0.213975 -0.800691 -9.877698 3.429993 89.241564 4.143338 -10.220856 0.573486 0.613876 -17.593043 2.675298 -5.653277 3.367929 0.959565 15.306779 -3.667710 -88.176534 -8.716318 -20.744843 -14.396309 4.746089 -4.012299 -14.286981 -19.676979 10.528938 -9.940488 16.523921 8.670417 -2.976131 6.075949 -12.090721 3.169259 -0.113820 -0.102503 0.011353 5.891201 7.209616 -0.824990 1.869809 3.060277 -0.747409 0.733529 -3.665196 2.083958 0.044649 0.235713 0.014595
5.642834 88.745998 24.594911 -30.070135 -7.654642 1.005437 6.727933 6.058786 -0.391937 0.373445 0.320296 -0.024673 0.648698 0.556543 -0.041527 6.428833 5.525952 -0.132943 20.962776 20.060572 -1.499092 38.532168 4.304063 -8.351196 -1.599532 0.174649 -0.797750 -9.879329 3.405759 89.207868 4.233334 -10.247349 0.608476 0.638147 -17.603452 2.667664 -5.625476 3.422059 0.978742 15.717805 -3.487009 -88.147698 -8.857926 -22.199794 -15.598722 4.783933 -4.679903 -14.738156 -19.843016 10.571692 -9.952464 16.445643 8.617575 -3.004474 5.991101 -12.094582 3.151965 -0.115744 -0.092792 0.008839 5.688393 7.132574 -0.858563 1.833158 3.079244 -0.759093 0.649130 -3.616415 2.067489 0.045934 0.235979 0.016553
5.624746 88.746650 24.546319 -29.750832 -7.647827 1.048760 6.727634 6.062850 -0.412767 0.374089 0.320320 -0.025920 0.649795 0.556573 -0.043690 6.434949 5.524033 -0.154005 20.894127 20.071179 -1.537034 38.416374 4.319117 -8.400552 -1.592772 0.134689 -0.793789 -9.891435 3.383031 89.168539 4.333189 -10.270259 0.652704 0.659888 -17.612770 2.662299 -5.601846 3.482162 0.991734 16.139591 -3.328799 -88.108785 -8.955009 -23.635572 -16.844753 4.770997 -5.329207 -15.130517 -20.018298 10.615215 -9.972666 16.376502 8.562482 -3.029221 5.903624 -12.098568 3.136229 -0.119983 -0.080621 0.004269 5.491283 7.056854 -0.895305 1.806759 3.103123 -0.769843 0.551463 -3.568360 2.051969 0.047506 0.234988 0.017429
5.606736 88.747217 24.495989 -29.438361 -7.639206 1.092570 6.729116 6.067091 -0.433572 0.374863 0.320421 -0.027276 0.651113 0.556735 -0.046041 6.442096 5.522600 -0.176765 20.823222 20.083238 -1.573920 38.295975 4.335895 -8.447159 -1.581188 0.092795 -0.787786 -9.912704 3.362885 89.126326 4.440346 -10.288387 0.699952 0.680605 -17.622978 2.661553 -5.577564 3.545313 1.000008 16.552469 -3.187458 -88.065453 -9.018540 -25.057317 -18.111665 4.715005 -5.942404 -15.505372 -20.192778 10.653510 -9.993219 16.315523 8.507665 -3.054536 5.824528 -12.102158 3.120239 -0.123866 -0.067747 0.000293 5.305547 6.978646 -0.932394 1.782816 3.126675 -0.777117 0.448102 -3.520325 2.033405 0.049459 0.234293 0.018992
5.588857 88.747729 24.443138 -29.136230 -7.622974 1.134963 6.735043 6.067963 -0.454782 0.375878 0.320377 -0.028671 0.652845 0.556643 -0.048459 6.452677 5.518151 -0.200112 20.750401 20.095399 -1.608256 38.171410 4.351574 -8.488844 -1.567412 0.050676 -0.780963 -9.932993 3.347187 89.085437 4.556465 -10.305988 0.744982 0.699866 -17.635936 2.664319 -5.548743 3.605412 1.005083 16.951861 -3.055761 -88.026334 -9.071467 -26.471488 -19.389770 4.650654 -6.515026 -15.868631 -20.356304 10.682207 -10.006554 16.260009 8.454511 -3.082403 5.748690 -12.104845 3.104335 -0.128378 -0.054289 -0.002730 5.135000 6.894117 -0.967753 1.752949 3.145504 -0.781213 0.346813 -3.471008 2.011339 0.051365 0.234642 0.021146
5.570634 88.748370 24.388366 -28.846622 -7.602399 1.174701 6.747577 6.064756 -0.475571 0.377283 0.320277 -0.029981 0.655247 0.556448 -0.050728 6.468177 5.511138 -0.221730 20.674743 20.107513 -1.639582 38.040908 4.365524 -8.524636 -1.555417 0.012088 -0.775656 -9.943858 3.334518 89.046140 4.679748 -10.324792 0.788710 0.718396 -17.647671 2.663997 -5.514963 3.658887 1.007042 17.339955 -2.932413 -87.996896 -9.111202 -27.875080 -20.677303 4.599114 -7.055128 -16.210895 -20.501834 10.706624 -10.010251 16.205476 8.403049 -3.110408 5.663436 -12.105292 3.089153 -0.134195 -0.040761 -0.006288 4.980305 6.807586 -1.000279 1.712022 3.158647 -0.782007 0.254829 -3.420308 1.989495 0.052355 0.235734 0.020702
5.551724 88.749304 24.332689 -28.566084 -7.582902 1.211311 6.765459 6.059333 -0.494704 0.379014 0.320296 -0.031161 0.658206 0.556449 -0.052768 6.487099 5.504137 -0.240734 20.595491 20.120111 -1.667203 37.902835 4.378311 -8.552996 -1.546621 -0.021444 -0.772490 -9.950267 3.321568 89.006578 4.804982 -10.336935 0.832351 0.736809 -17.655778 2.659531 -5.478209 3.704964 1.007300 17.719026 -2.823051 -87.980803 -9.126589 -29.252405 -21.966851 4.563687 -7.576757 -16.535281 -20.631614 10.732157 -10.006258 16.145260 8.354676 -3.139626 5.575320 -12.104340 3.073776 -0.139611 -0.028956 -0.009486 4.837124 6.724722 -1.029622 1.660794 3.166336 -0.779645 0.171801 -3.368401 1.969121 0.052711 0.237169 0.017263
5.532547 88.750506 24.276492 -28.291275 -7.564457 1.246458 6.785930 6.053551 -0.513673 0.380930 0.320384 -0.032307 0.661480 0.556565 -0.054746 6.507846 5.497199 -0.258890 20.514415 20.132572 -1.689848 37.760154 4.388842 -8.572228 -1.537325 -0.050902 -0.769955 -9.957646 3.305795 88.966561 4.928725 -10.340889 0.874203 0.753330 -17.661430 2.655040 -5.438540 3.741770 1.008808 18.090879 -2.732768 -87.974415 -9.100264 -30.584622 -23.258981 4.535252 -8.090263 -16.848308 -20.751981 10.756531 -9.997868 16.077024 8.311741 -3.171028 5.492568 -12.104531 3.057577 -0.144392 -0.019108 -0.011588 4.703911 6.644992 -1.056580 1.605385 3.169641 -0.775882 0.088854 -3.314826 1.948614 0.052948 0.238163 0.013618
5.513525 88.751864 24.219999 -28.023097 -7.546067 1.282055 6.809223 6.049089 -0.533661 0.383139 0.320565 -0.033488 0.665252 0.556835 -0.056785 6.531467 5.490200 -0.277299 20.433107 20.144598 -1.708158 37.615968 4.397177 -8.583876 -1.527834 -0.079730 -0.766889 -9.960356 3.287462 88.925814 5.049336 -10.346110 0.913736 0.768414 -17.662445 2.651729 -5.396538 3.765252 1.012510 18.452306 -2.661501 -87.968612 -9.017842 -31.861484 -24.556380 4.505696 -8.596504 -17.152709 -20.865965 10.777735 -9.987214 16.002358 8.274170 -3.203864 5.412352 -12.107050 3.041821 -0.149367 -0.009990 -0.013730 4.582058 6.567431 -1.082203 1.547860 3.169027 -0.772568 0.003293 -3.258799 1.927932 0.053457 0.237931 0.010848
5.494789 88.753232 24.163348 -27.760636 -7.527157 1.318171 6.834629 6.046726 -0.554606 0.385596 0.320867 -0.034712 0.669446 0.557309 -0.058894 6.557283 5.483727 -0.296061 20.352951 20.156597 -1.723492 37.473080 4.404816 -8.590513 -1.519205 -0.110953 -0.762942 -9.956159 3.268688 88.885614 5.164774 -10.354221 0.950724 0.786361 -17.660712 2.645840 -5.351557 3.774223 1.019452 18.798830 -2.608726 -87.960712 -8.888856 -33.071294 -25.850273 4.475298 -9.096719 -17.446930 -20.976658 10.795884 -9.975728 15.924083 8.239614 -3.236070 5.331784 -12.111598 3.027018 -0.154729 -0.000850 -0.016821 4.471827 6.491221 -1.105525 1.485077 3.164998 -0.772662 -0.082558 -3.200390 1.909752 0.054422 0.236594 0.008071
5.476303 88.754465 24.106599 -27.499024 -7.507375 1.353362 6.859214 6.045313 -0.575254 0.387969 0.321200 -0.035920 0.673495 0.557837 -0.060977 6.581879 5.478053 -0.314526 20.275115 20.168705 -1.736045 37.333637 4.412347 -8.592696 -1.508996 -0.143621 -0.759910 -9.949073 3.251246 88.848275 5.275887 -10.360426 0.984408 0.807593 -17.662811 2.636290 -5.302707 3.770591 1.028283 19.128464 -2.573093 -87.948423 -8.730704 -34.196198 -27.122444 4.441964 -9.595973 -17.736704 -21.089186 10.810416 -9.965169 15.842921 8.207574 -3.265452 5.259574 -12.118256 3.009970 -0.158172 0.007323 -0.019247 4.367079 6.416219 -1.124459 1.416328 3.156055 -0.779327 -0.166764 -3.138943 1.895067 0.055659 0.234968 0.005754
5.458074 88.755477 24.049977 -27.237029 -7.487286 1.387361 6.881781 6.043949 -0.594708 0.390124 0.321524 -0.037030 0.677170 0.558354 -0.062888 6.603999 5.473218 -0.331409 20.200613 20.181533 -1.746046 37.199437 4.421186 -8.590875 -1.497312 -0.176988 -0.759975 -9.938742 3.236253 88.813468 5.382179 -10.365961 1.016457 0.829886 -17.667294 2.625765 -5.252421 3.755290 1.035612 19.437406 -2.551769 -87.926011 -8.559874 -35.234940 -28.354780 4.406324 -10.082047 -18.025106 -21.204593 10.821722 -9.955139 15.760817 8.178830 -3.294379 5.197436 -12.127163 2.991612 -0.160701 0.013709 -0.020755 4.259222 6.342808 -1.139924 1.344777 3.142204 -0.791662 -0.245969 -3.074551 1.880547 0.057362 0.233459 0.005828
